<svg xmlns="http://www.w3.org/2000/svg" version="1.1" xmlns:xlink="http://www.w3.org/1999/xlink" width="512" height="512" x="0" y="0" viewBox="-60 -40 400 400" style="enable-background:new 0 0 512 512" xml:space="preserve">
  <g>
    <!-- White border -->
    <path d="M231.641 113.009c-3.915-40.789-37.875-72.792-79.684-72.792-32.351 0-60.053 19.201-72.819 46.752-3.844-1.216-7.849-2.056-12.095-2.056-22.214 0-40.226 18.021-40.226 40.226 0 4.416.885 8.591 2.199 12.551C11.737 147.765 0 166.269 0 187.705c0 32.092 26.013 58.105 58.105 58.105v.009h160.896v-.009c37.035 0 67.035-30.009 67.035-67.044 0-32.691-23.421-59.839-54.395-65.757zM96.91 180.089l-16.627-16.511c-2.396-3.915-.438-7.107 4.336-7.107h7.276c.635-29.741 24.619-53.68 54.189-53.68 14.991 0 28.543 6.15 38.358 16.082l-12.148 11.764c-6.678-6.749-16.019-10.879-26.21-10.924-20.515-.098-36.597 16.645-37.16 36.758h8.966c4.756 0 6.722 3.191 4.336 7.107l-16.636 16.511c-2.387 3.915-6.294 3.915-8.68 0zm108.682-23.716h-7.294c-.635 29.75-24.699 53.689-54.341 53.689-15.027 0-28.614-6.15-38.465-16.082l12.184-11.755c6.695 6.749 16.073 10.87 26.272 10.915 20.578.116 36.686-16.645 37.259-36.758h-8.975c-4.791 0-6.749-3.191-4.353-7.107l16.672-16.511c2.405-3.906 6.311-3.906 8.707 0l16.672 16.511c2.402 3.907.445 7.098-4.338 7.098z" 
          fill="none" stroke="white" stroke-width="23"/>
    <!-- Original Path -->
    <path d="M231.641 113.009c-3.915-40.789-37.875-72.792-79.684-72.792-32.351 0-60.053 19.201-72.819 46.752-3.844-1.216-7.849-2.056-12.095-2.056-22.214 0-40.226 18.021-40.226 40.226 0 4.416.885 8.591 2.199 12.551C11.737 147.765 0 166.269 0 187.705c0 32.092 26.013 58.105 58.105 58.105v.009h160.896v-.009c37.035 0 67.035-30.009 67.035-67.044 0-32.691-23.421-59.839-54.395-65.757zM96.91 180.089l-16.627-16.511c-2.396-3.915-.438-7.107 4.336-7.107h7.276c.635-29.741 24.619-53.68 54.189-53.68 14.991 0 28.543 6.15 38.358 16.082l-12.148 11.764c-6.678-6.749-16.019-10.879-26.21-10.924-20.515-.098-36.597 16.645-37.16 36.758h8.966c4.756 0 6.722 3.191 4.336 7.107l-16.636 16.511c-2.387 3.915-6.294 3.915-8.68 0zm108.682-23.716h-7.294c-.635 29.75-24.699 53.689-54.341 53.689-15.027 0-28.614-6.15-38.465-16.082l12.184-11.755c6.695 6.749 16.073 10.87 26.272 10.915 20.578.116 36.686-16.645 37.259-36.758h-8.975c-4.791 0-6.749-3.191-4.353-7.107l16.672-16.511c2.405-3.906 6.311-3.906 8.707 0l16.672 16.511c2.402 3.907.445 7.098-4.338 7.098z" 
          fill="#25D366"/>
  </g>
</svg>

